<?xml version="1.0" standalone="no"?>
<!DOCTYPE svg PUBLIC "-//W3C//DTD SVG 20010904//EN"
 "http://www.w3.org/TR/2001/REC-SVG-20010904/DTD/svg10.dtd">
<svg version="1.0" xmlns="http://www.w3.org/2000/svg"
 width="512.000000pt" height="512.000000pt" viewBox="0 0 512.000000 512.000000"
 preserveAspectRatio="xMidYMid meet">

<g transform="translate(0.000000,512.000000) scale(0.100000,-0.100000)"
fill="#000000" stroke="none">
<path d="M1500 3823 c-31 -11 -68 -39 -116 -87 -109 -109 -162 -228 -254 -576
l-47 -175 -217 -5 -218 -5 -24 -28 c-46 -53 -44 -109 6 -158 l28 -29 187 0
c173 0 186 -1 181 -17 -3 -10 -67 -268 -141 -573 -147 -603 -151 -616 -227
-653 -77 -38 -165 21 -224 148 -41 92 -73 119 -134 112 -61 -7 -100 -50 -100
-109 0 -63 70 -197 139 -268 81 -81 153 -114 263 -118 77 -4 93 -1 147 24 73
32 156 116 195 196 20 41 258 980 311 1226 l7 32 174 0 c191 0 220 7 242 55
26 57 6 131 -43 153 -16 8 -80 12 -170 12 -80 0 -145 2 -145 4 0 3 18 72 40
155 81 304 143 432 226 467 70 29 129 -28 154 -149 21 -102 84 -146 163 -114
63 27 81 90 53 194 -36 135 -105 229 -200 274 -51 24 -73 29 -136 28 -41 0
-95 -8 -120 -16z"/>
<path d="M2745 3215 c-215 -49 -373 -179 -475 -389 -124 -255 -133 -632 -22
-916 36 -92 122 -220 193 -283 125 -114 281 -167 489 -167 190 0 308 34 437
126 151 108 252 284 299 522 23 121 16 422 -14 544 -12 49 -26 96 -30 105 -69
142 -92 181 -140 240 -74 87 -188 164 -296 200 -70 22 -102 26 -231 29 -102 2
-169 -1 -210 -11z m339 -156 c193 -72 296 -317 295 -704 0 -328 -58 -535 -183
-653 -73 -70 -144 -95 -266 -95 -125 0 -193 25 -271 100 -68 65 -107 140 -145
278 -26 97 -27 108 -27 360 0 253 0 263 27 360 37 132 67 193 127 260 53 57
125 99 199 115 65 13 179 4 244 -21z"/>
<path d="M4099 2417 c-27 -14 -57 -42 -76 -71 l-33 -48 0 34 c0 84 -118 122
-181 59 l-29 -29 0 -402 0 -402 29 -29 c25 -24 38 -29 79 -29 40 0 54 5 76 26
l26 27 0 272 c0 307 6 342 66 395 62 54 150 34 185 -43 17 -38 19 -69 19 -329
l0 -286 26 -31 c23 -27 32 -31 79 -31 47 0 56 4 79 31 l26 31 0 276 c0 309 4
330 69 385 61 51 148 28 182 -46 17 -38 19 -69 19 -333 l0 -291 26 -27 c35
-34 108 -37 148 -5 l27 21 -3 352 -3 351 -27 50 c-53 100 -124 145 -231 145
-91 0 -157 -35 -205 -107 -21 -33 -38 -50 -41 -42 -12 40 -64 98 -109 122 -67
36 -158 38 -223 4z"/>
<path d="M1358 2394 c-32 -17 -58 -62 -58 -99 0 -48 27 -89 140 -218 99 -113
110 -130 99 -145 -8 -9 -59 -71 -115 -137 -130 -156 -134 -162 -134 -212 0
-59 38 -102 99 -110 69 -9 100 14 208 157 53 69 99 129 103 133 4 4 53 -53
110 -127 107 -140 139 -166 200 -166 92 0 148 96 105 180 -8 15 -66 88 -130
162 -63 73 -115 135 -115 139 0 3 48 61 107 130 58 68 114 138 125 154 52 86
-16 184 -119 172 -55 -6 -76 -26 -185 -169 -46 -59 -85 -108 -88 -108 -3 1
-45 55 -95 122 -49 66 -103 129 -120 139 -36 23 -100 24 -137 3z"/>
</g>
</svg>
