<?xml version="1.0" standalone="no"?>
<!DOCTYPE svg PUBLIC "-//W3C//DTD SVG 20010904//EN"
 "http://www.w3.org/TR/2001/REC-SVG-20010904/DTD/svg10.dtd">
<svg version="1.0" xmlns="http://www.w3.org/2000/svg"
 width="3445.000000pt" height="400.000000pt" viewBox="0 0 3445.000000 400.000000"
 preserveAspectRatio="xMidYMid meet">

<g transform="translate(0.000000,400.000000) scale(0.100000,-0.100000)"
fill="rgb(248, 248, 255)" stroke="none">
<path d="M31511 3783 c-32 -29 -231 -364 -231 -388 0 -24 35 -35 114 -35 l75
0 3 -72 3 -73 43 -3 42 -3 0 65 c0 62 2 66 29 80 49 26 51 65 2 69 -31 2 -34
26 -29 208 5 183 0 199 -51 152z m-36 -215 c-9 -123 -14 -147 -35 -158 -23
-12 -87 -13 -94 -1 -16 26 95 241 124 241 7 0 9 -28 5 -82z"/>
<path d="M31020 3778 c-75 -28 -78 -33 -48 -65 l26 -28 1 -197 c1 -204 -5
-241 -39 -265 -49 -34 -5 -45 49 -12 27 16 39 18 55 10 38 -19 76 -31 76 -22
0 4 -11 18 -25 31 l-25 23 0 274 c0 150 -3 273 -7 272 -5 0 -33 -9 -63 -21z"/>
<path d="M30560 3009 c0 -6 14 -31 32 -57 38 -56 618 -783 660 -828 l30 -32
-67 -83 c-36 -46 -92 -115 -124 -154 -328 -399 -541 -663 -541 -670 0 -3 320
-5 710 -5 l710 0 0 53 c0 47 42 325 56 369 9 28 -12 29 -39 0 -15 -15 -31 -49
-37 -77 -14 -64 -64 -111 -151 -144 -62 -24 -74 -24 -419 -29 -195 -2 -405 -1
-467 3 -135 8 -136 -6 11 169 57 67 131 157 165 200 56 71 134 166 294 359 31
38 57 78 57 88 0 17 -68 111 -170 234 -28 33 -80 98 -117 145 -37 47 -123 151
-190 233 -68 81 -123 150 -123 153 0 3 199 4 443 2 493 -3 470 0 539 -76 24
-27 44 -66 63 -123 29 -87 40 -109 58 -109 10 0 6 116 -9 313 l-7 77 -683 0
c-479 0 -684 -3 -684 -11z"/>
<path d="M7075 2887 c-35 -19 -57 -22 -180 -23 -135 0 -230 -15 -282 -42 -11
-6 -49 -42 -84 -80 -108 -117 -179 -318 -179 -506 0 -111 33 -274 71 -347 32
-64 95 -126 162 -159 71 -35 158 -40 248 -14 73 21 176 124 222 221 30 63 32
76 32 174 0 102 -1 107 -39 184 -44 90 -97 147 -176 190 -49 27 -64 30 -140
30 -120 0 -172 -28 -280 -150 l-35 -40 -3 27 c-3 26 25 115 66 208 27 60 88
129 131 148 24 11 84 17 186 22 188 7 229 23 289 113 21 32 37 60 35 62 -2 2
-22 -7 -44 -18z m-304 -431 c69 -29 114 -101 148 -234 49 -190 10 -401 -83
-449 -40 -21 -132 -21 -172 0 -47 24 -99 88 -125 153 -21 53 -23 75 -24 230
l0 170 30 50 c50 81 144 114 226 80z"/>
<path d="M20756 2895 c-16 -9 -60 -38 -98 -67 -127 -94 -214 -224 -279 -417
l-41 -124 4 -161 c5 -179 19 -237 98 -401 42 -87 151 -221 223 -272 43 -31
120 -73 134 -73 4 0 -36 44 -89 98 -167 168 -218 323 -218 659 0 364 80 586
260 718 66 48 69 73 6 40z"/>
<path d="M33980 2902 c0 -5 40 -52 90 -105 124 -134 172 -239 186 -407 2 -30
9 -71 14 -90 28 -99 -2 -451 -50 -588 -41 -117 -113 -218 -215 -301 -16 -14
-24 -26 -18 -28 20 -7 72 26 152 97 229 202 340 548 271 847 -42 180 -99 292
-212 412 -90 94 -218 191 -218 163z"/>
<path d="M22755 2869 c-104 -24 -206 -62 -246 -93 -24 -18 -63 -44 -85 -59
-80 -50 -214 -266 -249 -402 -21 -84 -20 -228 4 -304 21 -68 95 -192 138 -233
74 -70 195 -95 298 -63 86 28 164 104 218 214 39 81 42 91 42 171 -1 70 -5 95
-27 141 -53 116 -151 189 -253 189 -65 0 -159 -24 -211 -55 l-41 -24 44 107
c59 142 125 230 222 294 41 26 86 51 100 54 41 10 141 56 141 65 0 11 -42 10
-95 -2z m-142 -537 c43 -26 86 -128 107 -258 18 -110 -32 -269 -95 -301 -38
-20 -109 -19 -163 2 -73 29 -140 169 -150 312 -7 108 4 158 44 202 31 36 53
46 139 65 30 7 87 -4 118 -22z"/>
<path d="M5547 2850 c-86 -25 -127 -47 -199 -104 -82 -65 -153 -164 -181 -250
-18 -60 -22 -94 -22 -211 0 -120 3 -150 23 -210 59 -175 190 -301 371 -355 61
-19 89 -22 170 -18 117 6 175 28 278 105 81 61 129 121 178 221 43 88 58 158
58 262 -1 104 -23 194 -70 280 -50 92 -75 123 -153 185 -125 100 -307 138
-453 95z m236 -51 c84 -42 143 -95 170 -152 64 -136 90 -349 63 -523 -27 -178
-78 -269 -185 -332 -38 -22 -60 -27 -138 -30 -121 -6 -165 10 -229 81 -58 64
-90 136 -115 252 -35 165 -17 412 37 517 46 89 136 178 201 198 56 17 151 11
196 -11z"/>
<path d="M21193 2851 c-131 -45 -210 -146 -265 -336 -19 -68 -23 -104 -23
-235 0 -176 14 -239 86 -381 45 -90 91 -139 166 -175 45 -23 63 -26 112 -21
208 18 351 264 351 604 0 116 -23 219 -72 327 -57 124 -90 161 -185 210 -61
30 -98 32 -170 7z m150 -61 c43 -37 84 -127 102 -224 20 -104 26 -382 9 -476
-7 -41 -17 -103 -23 -137 -16 -102 -97 -203 -163 -203 -32 0 -90 23 -109 43
-64 66 -98 230 -99 477 -2 255 35 433 102 497 45 42 67 52 110 53 27 0 46 -8
71 -30z"/>
<path d="M25975 2861 c-48 -12 -113 -49 -156 -88 -114 -103 -189 -388 -160
-605 19 -143 87 -302 160 -375 66 -67 138 -97 210 -90 131 14 214 90 283 260
45 112 61 197 61 342 0 116 -3 139 -27 215 -57 173 -124 271 -218 321 -44 23
-110 31 -153 20z m116 -63 c43 -29 80 -104 105 -212 15 -64 19 -120 19 -271 0
-376 -46 -528 -168 -553 -79 -16 -138 15 -172 91 -66 144 -85 453 -44 685 30
171 55 217 142 265 43 23 77 22 118 -5z"/>
<path d="M27237 2859 c-111 -26 -188 -95 -249 -226 -50 -107 -70 -207 -70
-363 -1 -150 19 -239 84 -362 48 -93 100 -148 175 -185 46 -22 61 -24 110 -18
32 3 77 15 100 26 98 47 186 188 224 362 28 126 23 338 -11 442 -56 176 -144
288 -250 319 -59 18 -59 18 -113 5z m123 -69 c68 -48 107 -189 116 -415 6
-154 -13 -394 -37 -476 -27 -88 -115 -153 -189 -139 -56 10 -82 30 -114 89
-46 86 -66 209 -66 416 1 278 33 429 107 496 72 66 120 74 183 29z"/>
<path d="M28115 2834 c-44 -20 -118 -51 -165 -70 -47 -18 -80 -34 -75 -36 6
-1 48 -2 95 -3 l84 0 8 -40 c11 -62 10 -873 -2 -895 -6 -11 -35 -24 -80 -35
-38 -9 -70 -21 -70 -26 0 -5 102 -9 230 -9 144 0 230 4 230 10 0 5 -12 12 -27
16 -93 21 -104 26 -113 50 -6 15 -10 240 -10 550 0 413 -3 524 -12 524 -7 0
-49 -17 -93 -36z"/>
<path d="M1710 2840 c-224 -5 -225 -5 -188 -22 21 -10 47 -18 59 -18 21 0 22
-3 16 -73 -4 -40 -18 -111 -32 -157 -14 -47 -41 -141 -61 -210 -89 -310 -147
-497 -170 -541 -22 -45 -29 -50 -82 -65 -118 -34 -94 -40 156 -36 210 3 243
11 154 38 -54 15 -72 31 -72 60 0 31 82 327 116 419 l15 40 87 -3 c115 -3 189
-19 202 -42 8 -16 16 -80 19 -158 2 -44 20 -11 36 66 9 42 34 142 56 221 22
79 38 146 35 148 -2 2 -21 -21 -41 -51 -20 -31 -58 -74 -84 -96 l-46 -40 -122
0 c-139 0 -137 -2 -107 81 8 24 33 112 55 194 21 83 44 163 51 178 l11 29 219
-6 c217 -6 220 -6 254 -32 37 -28 36 -28 34 -121 -1 -59 9 -79 26 -52 7 12 55
242 51 245 -7 6 -459 8 -647 4z"/>
<path d="M2524 2833 c4 -5 26 -17 49 -28 39 -18 42 -24 45 -63 3 -43 -67 -308
-189 -712 -78 -257 -80 -260 -178 -281 -99 -21 -51 -29 169 -29 124 0 220 4
220 9 0 5 -22 14 -49 21 -69 16 -85 37 -77 100 6 46 106 386 120 409 4 6 18 6
39 0 58 -17 219 -11 288 11 159 49 274 173 286 309 7 70 -8 102 -80 178 -74
78 -97 83 -400 83 -138 0 -247 -3 -243 -7z m435 -44 c139 -29 175 -163 91
-336 -53 -107 -131 -153 -259 -153 -86 0 -131 14 -131 39 0 22 65 258 98 356
18 54 34 83 48 90 32 16 90 17 153 4z"/>
<path d="M23265 2818 c-4 -13 -30 -66 -58 -118 -29 -52 -61 -119 -74 -148 -12
-30 -33 -70 -47 -91 -14 -20 -26 -40 -26 -43 0 -3 24 -8 53 -12 66 -8 208 -52
267 -81 54 -28 75 -49 129 -136 38 -62 41 -71 41 -138 0 -84 -19 -130 -77
-186 -83 -81 -162 -95 -254 -47 -30 16 -73 40 -96 53 -34 19 -46 22 -60 13
-32 -20 -38 -58 -19 -108 16 -42 22 -47 69 -61 141 -42 338 17 435 132 67 78
104 164 109 257 7 103 -6 148 -65 236 -76 112 -167 169 -334 207 -38 8 -68 19
-68 24 0 26 52 108 72 115 13 5 97 8 188 9 l165 0 22 45 c12 25 25 57 29 73
l6 27 -200 0 c-199 0 -201 0 -207 -22z"/>
<path d="M24687 2734 c-4 -4 -7 -99 -7 -210 l0 -204 -207 -2 -208 -3 0 -35 0
-35 205 -2 205 -2 3 -198 c1 -108 7 -202 11 -206 5 -5 21 -7 35 -3 l26 6 0
200 0 200 197 2 197 3 7 29 c5 16 6 33 3 38 -3 4 -95 8 -204 8 l-200 0 -2 208
-3 207 -25 3 c-14 2 -29 0 -33 -4z"/>
<path d="M32600 2701 c0 -13 50 -51 66 -51 20 0 18 -20 -20 -165 -60 -231 -75
-284 -105 -383 -16 -53 -41 -142 -56 -197 -33 -127 -42 -140 -101 -151 -26 -5
-49 -15 -52 -21 -3 -10 37 -13 177 -13 112 0 181 4 181 10 0 5 -12 12 -27 16
-66 14 -78 21 -82 45 -3 25 12 107 34 174 7 22 27 86 44 143 l32 102 93 0
c105 0 152 -12 161 -42 4 -10 4 -46 0 -79 -6 -49 -4 -59 8 -59 10 0 21 27 37
93 13 50 36 129 51 174 16 45 29 85 29 89 0 5 -23 -15 -50 -45 -62 -64 -95
-79 -185 -82 -128 -4 -127 -5 -120 39 11 63 77 306 92 335 l14 27 190 0 c238
0 239 0 239 -103 0 -65 1 -70 16 -55 15 14 53 150 54 191 0 16 -24 17 -360 17
-215 0 -360 -4 -360 -9z"/>
<path d="M19041 2521 c-11 -11 -21 -26 -21 -32 0 -7 46 -60 103 -118 56 -58
104 -108 107 -111 3 -3 25 -27 50 -53 l44 -47 -152 -153 c-83 -84 -152 -157
-152 -163 0 -14 33 -44 48 -44 6 0 33 24 59 52 96 105 241 248 251 248 5 0 74
-65 153 -145 78 -80 151 -147 162 -151 13 -4 27 1 40 15 l22 21 -153 153 c-83
84 -152 159 -152 168 0 9 68 87 151 172 134 139 149 158 139 177 -6 11 -18 20
-26 20 -13 0 -290 -258 -315 -294 -4 -4 -12 -7 -18 -5 -6 2 -81 73 -165 158
l-154 153 -21 -21z"/>
<path d="M29091 2516 l-23 -25 21 -28 c13 -15 81 -87 152 -159 71 -72 129
-135 129 -140 0 -5 -67 -77 -150 -159 -82 -82 -150 -154 -150 -160 0 -13 36
-45 51 -45 7 0 77 68 156 150 80 83 150 150 156 150 6 0 78 -70 161 -156 l151
-156 28 22 c15 12 27 27 27 34 0 6 -67 79 -150 161 -82 82 -150 152 -150 157
0 5 67 78 150 163 132 136 149 157 141 177 -17 48 -42 33 -196 -122 -82 -82
-155 -150 -160 -150 -6 0 -80 70 -164 155 -85 85 -154 155 -155 155 -2 0 -13
-11 -25 -24z"/>
<path d="M9540 2514 c-60 -16 -131 -58 -172 -101 -15 -16 -44 -64 -64 -108
-37 -78 -38 -83 -38 -201 l-1 -120 42 -86 c24 -48 58 -99 77 -116 83 -72 241
-99 336 -55 94 43 190 174 190 259 0 46 -9 39 -47 -36 -93 -182 -336 -146
-435 65 -22 47 -30 81 -31 127 l-2 63 253 1 c169 0 256 4 263 11 8 8 6 27 -6
69 -33 115 -72 164 -159 203 -35 15 -139 43 -149 40 -1 0 -27 -7 -57 -15z
m114 -63 c35 -20 77 -98 84 -156 l4 -41 -176 -1 c-172 -1 -176 -1 -176 20 0
33 38 103 80 146 59 61 116 70 184 32z"/>
<path d="M14980 2516 c-115 -25 -200 -97 -252 -215 -31 -72 -33 -82 -33 -196
0 -117 1 -122 36 -195 48 -100 78 -134 152 -169 90 -43 149 -48 238 -22 59 18
80 31 119 71 56 57 100 140 100 187 0 48 -15 41 -47 -24 -70 -142 -239 -160
-366 -40 -48 47 -94 145 -102 224 -6 57 -5 62 15 68 11 4 112 6 223 5 111 -1
219 -2 241 -1 l39 1 -5 51 c-3 29 -19 78 -39 117 -30 59 -40 70 -89 94 -51 26
-89 39 -150 51 -14 3 -50 0 -80 -7z m105 -65 c36 -20 76 -97 78 -153 l2 -40
-172 -2 c-199 -3 -192 -7 -143 90 35 71 64 101 117 119 42 15 72 11 118 -14z"/>
<path d="M8713 2484 c-94 -49 -136 -92 -174 -183 -73 -176 -38 -392 83 -507
70 -68 120 -88 213 -88 70 0 88 4 141 32 68 35 107 76 153 163 31 56 41 109
21 109 -5 0 -24 -25 -41 -55 -37 -67 -76 -101 -132 -116 -56 -15 -118 -5 -179
28 -57 31 -89 66 -124 134 -26 52 -53 183 -40 196 4 4 123 10 264 13 l257 5
-2 36 c-3 44 -46 145 -76 178 -12 13 -53 39 -92 57 -58 28 -81 34 -136 34 -58
0 -77 -5 -136 -36z m185 -34 c39 -24 70 -86 74 -150 l3 -44 -170 0 -170 0 3
29 c4 38 39 109 66 134 57 53 136 66 194 31z"/>
<path d="M11475 2505 c-96 -36 -192 -138 -236 -254 -46 -117 -19 -306 56 -406
30 -39 145 -119 196 -137 48 -17 187 -5 234 20 47 24 157 134 177 177 34 69
51 165 45 248 -8 115 -29 168 -98 241 -79 85 -148 119 -254 123 -53 2 -94 -2
-120 -12z m166 -52 c32 -12 51 -30 80 -75 65 -101 74 -141 74 -324 l0 -161
-30 -49 c-40 -64 -101 -98 -163 -89 -114 17 -156 60 -204 213 -30 94 -32 306
-4 372 50 115 139 156 247 113z"/>
<path d="M15692 2505 c-70 -22 -185 -123 -222 -195 -28 -55 -43 -151 -38 -247
7 -145 74 -259 194 -329 43 -25 59 -29 129 -29 70 0 86 4 128 28 26 16 74 54
105 85 59 58 92 129 92 195 0 42 -12 32 -49 -39 -94 -181 -301 -191 -409 -21
-44 70 -62 137 -64 238 -2 76 1 89 27 137 56 103 136 153 219 138 44 -8 62
-31 76 -90 18 -81 35 -111 70 -126 28 -11 36 -11 59 2 39 23 62 73 49 109 -12
36 -100 116 -153 140 -48 22 -150 24 -213 4z"/>
<path d="M17978 2506 c-58 -17 -92 -41 -155 -110 -107 -117 -138 -259 -92
-429 19 -68 29 -87 74 -135 29 -32 79 -73 111 -92 56 -34 61 -35 159 -35 91 1
105 3 153 30 30 16 78 55 107 87 44 48 59 73 79 137 14 44 28 101 31 128 7 56
-15 175 -44 231 -26 51 -116 134 -182 168 -64 32 -167 41 -241 20z m162 -58
c78 -40 132 -147 151 -301 23 -181 -21 -344 -103 -378 -42 -17 -129 -14 -169
6 -91 46 -145 174 -156 370 -4 86 -2 123 10 166 39 132 156 192 267 137z"/>
<path d="M3722 2463 l3 -38 433 -3 c237 -1 432 1 433 5 0 5 2 23 5 41 l4 32
-441 0 -440 0 3 -37z"/>
<path d="M7190 2494 c0 -5 20 -21 44 -35 32 -20 45 -35 50 -59 8 -45 6 -581
-3 -604 -4 -11 -27 -29 -51 -40 -23 -12 -43 -25 -44 -29 0 -4 238 -9 529 -10
483 -2 533 -4 562 -19 40 -22 61 -52 69 -98 7 -47 24 -90 35 -90 5 0 9 52 9
115 l0 115 -42 21 c-24 12 -46 27 -50 33 -4 6 -8 153 -8 327 l0 316 45 17 c25
10 47 22 50 27 4 5 -59 9 -154 9 -89 0 -161 -4 -161 -8 0 -5 18 -18 40 -31
l40 -22 0 -324 0 -324 -34 -6 c-46 -9 -242 -2 -253 8 -9 10 -18 587 -9 623 4
14 22 32 46 44 22 11 40 25 40 30 0 6 -60 10 -155 10 -97 0 -155 -4 -155 -10
0 -5 6 -10 13 -10 6 0 26 -11 42 -24 l30 -24 0 -309 c-1 -169 -4 -316 -8 -325
-6 -16 -21 -18 -130 -18 -83 0 -129 4 -140 13 -14 10 -17 44 -23 223 -4 117
-3 260 1 319 l7 107 44 19 c24 11 44 24 44 29 0 6 -41 10 -92 10 -51 0 -123 3
-160 7 -39 3 -68 2 -68 -3z"/>
<path d="M10445 2489 l-30 -6 43 -17 c23 -10 47 -27 52 -37 6 -10 10 -146 10
-327 0 -345 4 -327 -72 -352 -21 -6 -38 -16 -38 -21 0 -12 337 -12 344 0 4 5
-16 17 -44 26 -36 12 -52 23 -56 40 -10 39 0 313 12 325 24 24 62 0 90 -58 40
-85 159 -283 189 -314 25 -27 30 -28 125 -28 55 0 100 4 100 9 0 5 -18 15 -41
23 -38 13 -48 25 -134 163 -51 83 -107 167 -124 189 -37 45 -38 55 -10 89 11
15 32 57 48 94 32 79 42 84 142 58 63 -17 64 -16 81 5 10 13 18 39 18 60 0 31
-6 44 -32 65 -40 34 -88 30 -155 -12 -39 -24 -54 -44 -103 -137 -65 -125 -96
-156 -161 -159 l-44 -2 -3 115 c-4 150 -2 157 55 181 25 11 44 22 41 24 -7 7
-269 11 -303 4z"/>
<path d="M12190 2483 c0 -7 18 -23 40 -35 l40 -23 0 -246 c0 -265 -10 -338
-51 -359 -17 -10 -25 -6 -52 23 -39 41 -59 49 -92 37 -23 -9 -25 -15 -25 -70
0 -77 11 -97 56 -106 84 -16 171 45 199 138 13 43 16 104 16 324 l-1 272 23 6
c31 8 220 7 232 -2 6 -4 9 -126 7 -339 l-3 -332 -37 -11 c-20 -5 -43 -10 -49
-10 -7 0 -13 -7 -13 -15 0 -13 25 -15 166 -15 128 0 165 3 162 13 -3 6 -19 17
-37 23 -19 6 -38 19 -44 30 -8 13 -12 121 -12 326 0 333 -2 324 57 344 70 23
39 31 -144 38 -252 10 -438 6 -438 -11z"/>
<path d="M12930 2489 c0 -5 18 -20 40 -34 30 -19 40 -32 40 -53 1 -15 3 -159
5 -319 l4 -293 -44 -26 c-25 -14 -45 -30 -45 -35 0 -5 72 -9 161 -9 119 0 160
3 157 12 -2 6 -19 17 -37 23 -43 14 -61 40 -61 87 0 34 8 48 63 106 34 37 99
113 144 168 45 56 89 104 97 107 24 10 28 -22 24 -237 -3 -184 -4 -199 -23
-212 -11 -9 -32 -18 -47 -21 -15 -3 -29 -12 -32 -19 -5 -12 21 -14 164 -12
172 3 211 13 131 33 -22 6 -46 15 -52 22 -15 15 -24 471 -12 583 l8 75 50 25
50 25 -165 5 c-91 3 -167 4 -170 2 -3 -2 9 -13 25 -25 58 -42 75 -65 75 -101
0 -29 -9 -43 -56 -88 -31 -29 -88 -91 -127 -138 -68 -83 -124 -139 -139 -140
-10 0 -10 411 0 426 4 6 27 21 50 33 24 12 42 24 40 26 -7 8 -318 11 -318 4z"/>
<path d="M13830 2485 c0 -6 15 -19 34 -29 19 -10 37 -28 40 -40 3 -11 6 -87 6
-168 0 -165 0 -166 80 -201 79 -35 188 -23 333 38 16 7 17 -3 15 -151 l-3
-159 -52 -19 c-29 -10 -53 -22 -53 -27 0 -5 79 -9 175 -9 96 0 175 4 175 9 0
4 -20 16 -44 25 -24 9 -47 25 -51 34 -11 25 -17 549 -8 602 8 41 13 48 58 72
l50 28 -170 -1 -170 0 43 -25 c23 -15 45 -36 47 -48 3 -11 4 -77 3 -146 l-3
-125 -40 -19 c-25 -12 -70 -21 -120 -24 -100 -5 -124 9 -135 83 -9 56 -6 212
4 236 4 8 28 26 54 40 l47 24 -50 2 c-163 8 -265 7 -265 -2z"/>
<path d="M16211 2491 c-21 -6 -28 -19 -48 -105 -14 -54 -22 -101 -18 -104 9
-10 37 24 69 85 38 71 62 84 146 81 l65 -3 3 -319 c3 -356 3 -357 -64 -373
-21 -4 -39 -14 -42 -21 -3 -9 41 -12 187 -12 118 0 191 4 191 10 0 5 -10 12
-22 14 -100 21 -102 22 -109 46 -9 31 -11 622 -3 644 5 12 21 16 64 16 89 0
104 -9 141 -87 34 -72 48 -88 63 -73 10 10 -19 165 -35 191 -7 11 -59 14 -286
15 -153 1 -289 -1 -302 -5z"/>
<path d="M16920 2490 c0 -3 20 -20 45 -38 l45 -32 0 -314 0 -315 -26 -20 c-15
-12 -32 -21 -39 -21 -19 0 -39 -27 -23 -32 7 -2 117 -1 243 2 l230 5 72 34
c87 40 123 76 133 130 18 98 -30 188 -112 213 -21 6 -38 17 -38 25 0 7 22 29
49 48 56 41 61 50 61 113 0 66 -33 127 -83 156 -84 49 -138 57 -356 54 -110
-1 -201 -5 -201 -8z m394 -56 c26 -9 62 -31 81 -49 43 -40 46 -81 12 -145 -32
-62 -89 -90 -178 -90 -40 0 -71 5 -75 11 -13 21 -15 261 -3 275 16 19 104 18
163 -2z m39 -368 c65 -28 88 -60 94 -124 4 -38 0 -54 -22 -87 -15 -22 -38 -49
-52 -59 -30 -22 -102 -31 -167 -22 -38 6 -47 12 -52 32 -7 26 -9 127 -6 233
l2 64 74 -6 c45 -4 96 -16 129 -31z"/>
<path d="M3720 2195 l0 -35 434 0 c469 0 446 -3 446 51 0 18 -13 19 -440 19
l-440 0 0 -35z"/>
<path d="M21833 1889 c-48 -24 -68 -62 -60 -117 11 -67 67 -89 145 -56 35 14
38 14 55 -7 10 -12 15 -29 12 -36 -3 -8 -5 -21 -5 -28 0 -26 -61 -84 -136
-131 -69 -43 -94 -74 -59 -74 54 0 197 119 226 188 23 54 24 132 3 175 -26 52
-85 107 -114 107 -14 0 -44 -9 -67 -21z"/>
<path d="M26583 1888 c-65 -46 -77 -128 -25 -168 30 -24 66 -25 128 -4 56 19
67 10 52 -45 -22 -78 -50 -111 -133 -156 -105 -56 -126 -86 -41 -61 141 43
243 180 223 303 -12 71 -92 153 -148 153 -13 0 -39 -10 -56 -22z"/>
<path d="M33353 1873 c-27 -5 -29 -16 -8 -33 20 -17 50 -8 50 14 0 21 -9 25
-42 19z"/>
<path d="M33240 1741 c0 -5 14 -14 31 -20 35 -12 35 -12 0 -116 -50 -151 -71
-229 -62 -238 4 -4 26 -7 47 -5 l39 3 1 65 c1 47 11 93 37 167 40 112 38 122
-22 142 -41 13 -71 14 -71 2z"/>
<path d="M31673 910 c-77 -32 -81 -37 -57 -54 18 -13 19 -31 22 -244 3 -228 3
-229 -19 -235 -12 -3 -19 -12 -17 -19 3 -9 29 -13 92 -13 48 0 90 3 92 7 3 4
-6 16 -18 28 -23 21 -23 26 -28 288 l-5 268 -62 -26z"/>
<path d="M30913 863 c-7 -2 -13 -16 -13 -29 0 -22 3 -24 28 -18 28 7 42 20 42
42 0 12 -33 15 -57 5z"/>
<path d="M30836 719 l21 -21 -19 -86 c-18 -82 -54 -220 -65 -249 -6 -16 59
-18 88 -2 17 9 19 17 14 52 -5 30 2 77 24 166 17 68 31 127 31 132 0 6 -84 29
-108 29 -3 0 3 -9 14 -21z m34 -319 c0 -5 -2 -10 -4 -10 -3 0 -8 5 -11 10 -3
6 -1 10 4 10 6 0 11 -4 11 -10z"/>
<path d="M31097 683 c-3 -5 -3 -19 0 -33 l4 -25 202 3 c111 2 202 4 203 5 1 1
4 13 6 27 l3 25 -207 3 c-114 1 -209 -1 -211 -5z m153 -35 c0 -5 -4 -8 -10 -8
-5 0 -10 10 -10 23 0 18 2 19 10 7 5 -8 10 -18 10 -22z m-100 1 c0 -6 -4 -7
-10 -4 -5 3 -10 11 -10 16 0 6 5 7 10 4 6 -3 10 -11 10 -16z m40 0 c0 -6 -4
-7 -10 -4 -5 3 -10 11 -10 16 0 6 5 7 10 4 6 -3 10 -11 10 -16z m140 1 c0 -5
-2 -10 -4 -10 -3 0 -8 5 -11 10 -3 6 -1 10 4 10 6 0 11 -4 11 -10z"/>
<path d="M31090 500 l0 -30 213 2 212 3 3 28 3 27 -215 0 -216 0 0 -30z"/>
</g>
</svg>
